External Loads File
version=1
nRows=77
nColumns=13
Range=5.000000e-03-10 seconds
endheader
time 	forceRightX 	forceRightY 	forceRightZ 	pointRightX 	pointRightY 	pointRightZ 	forceLeftX 	forceLeftY 	forceLeftZ 	pointLeftX 	pointLeftY 	pointLeftZ 		
7.505000 -65.225142 -47.777411 -0.000000 0.148850 0.438114 -0.126526 45.824774 783.026254 -0.000000 0.257844 0.172370 -0.365946
7.510000 -72.455035 -52.482621 -0.000000 0.155918 0.444926 -0.127886 68.787532 803.049916 -0.000000 0.248971 0.163583 -0.365845
7.515000 -78.265546 -56.111663 -0.000000 0.164479 0.451097 -0.128242 90.831215 819.972395 -0.000000 0.239801 0.159657 -0.365795
7.520000 -82.562194 -58.273571 -0.000000 0.173230 0.456675 -0.128840 112.699165 832.435514 -0.000000 0.230399 0.157438 -0.365624
7.525000 -84.372108 -59.910968 -0.000000 0.182221 0.461470 -0.129302 122.456830 840.859746 -0.000000 0.225870 0.153772 -0.361603
7.530000 -85.375162 -58.414562 -0.000000 0.191225 0.465552 -0.129493 144.841271 840.282825 -0.000000 0.216181 0.150784 -0.361446
7.535000 -84.560627 -55.200563 -0.000000 0.200258 0.468959 -0.129668 165.923267 831.090854 -0.000000 0.206505 0.148134 -0.361197
7.540000 -82.492376 -49.653652 -0.000000 0.209332 0.471775 -0.129780 193.719961 810.119445 -0.000000 0.193255 0.140490 -0.362356
7.545000 -78.179826 -43.983830 -0.000000 0.218379 0.474046 -0.130002 209.455786 780.477233 -0.000000 0.183681 0.139448 -0.362037
7.550000 -72.772434 -37.128775 -0.000000 0.227583 0.475630 -0.129844 226.187689 738.371650 -0.000000 0.172560 0.139203 -0.364353
7.555000 -66.192198 -30.164568 -0.000000 0.236032 0.476606 -0.129978 233.989245 686.407282 -0.000000 0.163205 0.139586 -0.364208
7.560000 -59.194743 -22.492411 -0.000000 0.244554 0.477000 -0.129865 237.593085 623.677437 -0.000000 0.154159 0.140934 -0.364021
7.565000 -52.203815 -13.989131 -0.000000 0.252733 0.476709 -0.129707 235.276471 552.054282 -0.000000 0.145588 0.142652 -0.363849
7.570000 -45.733379 -3.975749 -0.000000 0.260593 0.475645 -0.129288 230.257835 472.182660 -0.000000 0.137589 0.151580 -0.363579
7.575000 -40.103319 7.342535 -0.000000 0.267931 0.473894 -0.129036 216.114879 389.954919 -0.000000 0.130170 0.154576 -0.363328
7.580000 -35.787695 20.786529 -0.000000 0.274796 0.471420 -0.128831 197.073935 307.068489 -0.000000 0.123317 0.158097 -0.363059
7.585000 -33.039007 36.951308 -0.000000 0.281419 0.468078 -0.128442 174.751374 226.467420 -0.000000 0.116928 0.162240 -0.362786
7.590000 -32.134806 56.356301 -0.000000 0.287178 0.464203 -0.127927 150.133755 151.431104 -0.000000 0.110898 0.166616 -0.362843
7.595000 -33.040443 79.782297 -0.000000 0.292779 0.459460 -0.127421 125.365450 83.670183 -0.000000 0.105000 0.171522 -0.362429
7.600000 -35.957816 107.924457 -0.000000 0.297862 0.454764 -0.127221 101.354079 25.020456 -0.000000 0.099214 0.176986 -0.361802
7.605000 -41.107753 141.521522 -0.000000 0.302022 0.449472 -0.126846 79.054795 -23.657319 -0.000000 0.093654 0.182979 -0.360962
7.610000 -48.951472 181.023094 -0.000000 0.305899 0.444392 -0.126187 59.019660 -61.917847 -0.000000 0.088426 0.189347 -0.360256
7.615000 -59.400475 226.512145 -0.000000 0.309417 0.437332 -0.126192 41.252884 -89.859878 -0.000000 0.083721 0.195744 -0.360055
7.620000 -72.927755 277.180438 -0.000000 0.312840 0.429839 -0.126072 25.883706 -107.762748 -0.000000 0.079294 0.202402 -0.360269
7.625000 -89.149021 331.643476 -0.000000 0.316402 0.421720 -0.125558 12.965350 -116.640764 -0.000000 0.075346 0.209527 -0.360126
7.630000 -107.050483 387.986666 -0.000000 0.319706 0.412641 -0.124682 2.639273 -118.053493 -0.000000 0.071692 0.217106 -0.360080
7.635000 -124.429822 444.150847 -0.000000 0.323170 0.402425 -0.123846 -5.083261 -113.894019 -0.000000 0.068254 0.225068 -0.360062
7.640000 -141.088716 497.335429 -0.000000 0.326243 0.392397 -0.123636 -9.700522 -106.079392 -0.000000 0.065060 0.233647 -0.360098
7.645000 -155.438536 545.330797 -0.000000 0.329193 0.382593 -0.123713 -11.456851 -96.222771 -0.000000 0.062136 0.242810 -0.360206
7.650000 -164.229330 587.008085 -0.000000 0.331571 0.371358 -0.122965 -11.123761 -85.363874 -0.000000 0.059613 0.252324 -0.360353
7.655000 -168.697728 620.795348 -0.000000 0.333635 0.360108 -0.122244 -8.930127 -74.051720 -0.000000 0.057441 0.262136 -0.360539
7.660000 -170.553678 645.919627 -0.000000 0.335204 0.349517 -0.121778 -5.290364 -62.332846 -0.000000 0.055796 0.272204 -0.360741
7.665000 -168.480649 663.229242 -0.000000 0.336344 0.338840 -0.121314 -0.809333 -49.966008 -0.000000 0.054668 0.282530 -0.360938
7.670000 -163.809605 673.464195 -0.000000 0.336668 0.328137 -0.120625 4.476311 -36.767626 -0.000000 0.054008 0.292780 -0.361109
7.675000 -155.455284 678.346768 -0.000000 0.337033 0.317334 -0.120146 10.578551 -22.797365 -0.000000 0.054099 0.303398 -0.361098
7.680000 -144.027915 679.299873 -0.000000 0.337277 0.306226 -0.119859 17.644102 -8.434314 -0.000000 0.054604 0.314099 -0.361082
7.685000 -130.363546 677.623866 -0.000000 0.336925 0.295098 -0.120170 25.590476 5.758656 -0.000000 0.055635 0.324925 -0.361184
7.690000 -115.824749 674.351356 -0.000000 0.335300 0.284326 -0.119758 34.035125 19.222573 -0.000000 0.057214 0.335556 -0.361049
7.695000 -99.725438 670.671112 -0.000000 0.333364 0.273780 -0.118637 42.451352 31.331175 -0.000000 0.059377 0.346230 -0.361106
7.700000 -81.217352 667.405175 -0.000000 0.330661 0.263254 -0.119514 50.328895 41.405099 -0.000000 0.062400 0.356938 -0.360935
7.705000 -61.749132 664.690522 -0.000000 0.327504 0.252639 -0.119289 57.038930 48.931953 -0.000000 0.066196 0.367017 -0.360926
7.710000 -41.353663 662.619334 -0.000000 0.323724 0.242594 -0.119095 62.040155 53.338815 -0.000000 0.070602 0.377101 -0.360837
7.715000 -20.407152 661.113903 -0.000000 0.319216 0.232832 -0.118885 64.803008 54.120777 -0.000000 0.075941 0.386505 -0.360759
7.720000 1.503051 660.064496 -0.000000 0.314308 0.223105 -0.118632 64.875116 50.795746 -0.000000 0.081687 0.395850 -0.360074
7.725000 22.649311 659.345539 -0.000000 0.308932 0.213878 -0.118717 61.669466 43.272336 -0.000000 0.088321 0.404460 -0.360103
7.730000 43.797572 658.865214 -0.000000 0.302623 0.205058 -0.118408 54.899454 31.466528 -0.000000 0.095726 0.412336 -0.360139
7.735000 65.543009 658.407705 -0.000000 0.296110 0.196509 -0.118451 44.380436 15.609091 -0.000000 0.104012 0.420302 -0.361258
7.740000 86.420488 657.898639 -0.000000 0.289115 0.188405 -0.118363 30.051988 -3.654651 -0.000000 0.112410 0.428273 -0.361165
7.745000 105.651310 657.270657 -0.000000 0.281628 0.180912 -0.118433 12.218365 -25.533025 -0.000000 0.121314 0.435217 -0.360959
7.750000 124.115617 656.111545 -0.000000 0.273841 0.173701 -0.118478 -8.572463 -49.017439 -0.000000 0.130427 0.442089 -0.360751
7.755000 141.537833 653.991388 -0.000000 0.265407 0.167468 -0.118854 -31.505803 -72.794227 -0.000000 0.139738 0.448515 -0.360792
7.760000 156.935818 650.517575 -0.000000 0.257258 0.161323 -0.118326 -55.352603 -95.450515 -0.000000 0.149066 0.454676 -0.360247
7.765000 170.761902 644.897836 -0.000000 0.248564 0.156284 -0.118268 -78.761192 -115.424873 -0.000000 0.158282 0.460137 -0.360301
7.770000 183.733811 636.167360 -0.000000 0.239704 0.151233 -0.118299 -100.378397 -131.092382 -0.000000 0.167602 0.465331 -0.360335
7.775000 194.933478 623.804805 -0.000000 0.230713 0.147146 -0.118247 -118.630301 -141.316140 -0.000000 0.176949 0.469933 -0.359554
7.780000 205.134293 606.852339 -0.000000 0.221498 0.143795 -0.118106 -132.561830 -145.182909 -0.000000 0.186546 0.473959 -0.359865
7.785000 212.284408 585.416744 -0.000000 0.212487 0.140994 -0.118272 -141.001047 -143.003000 -0.000000 0.195744 0.477278 -0.360230
7.790000 217.965376 558.602602 -0.000000 0.203348 0.138953 -0.118317 -144.197755 -134.959903 -0.000000 0.205179 0.479973 -0.360003
7.795000 220.912904 526.775451 -0.000000 0.194319 0.137572 -0.118379 -142.306031 -122.369528 -0.000000 0.214411 0.482061 -0.360285
7.800000 221.628287 489.913488 -0.000000 0.185427 0.136757 -0.118447 -136.397519 -106.285150 -0.000000 0.223815 0.483116 -0.361037
7.805000 219.120335 448.943829 -0.000000 0.176619 0.136482 -0.118542 -127.510044 -88.079706 -0.000000 0.232762 0.484074 -0.361391
7.810000 213.465538 404.645876 -0.000000 0.168008 0.136899 -0.118536 -117.029205 -68.648366 -0.000000 0.241155 0.484367 -0.361777
7.815000 205.179208 357.764644 -0.000000 0.159663 0.137753 -0.118545 -106.336827 -48.562802 -0.000000 0.249350 0.484154 -0.362014
7.820000 194.314047 309.477808 -0.000000 0.151553 0.139337 -0.118609 -96.557421 -28.349444 -0.000000 0.256903 0.483351 -0.362200
7.825000 181.813262 260.611281 -0.000000 0.143822 0.141448 -0.118635 -88.643597 -8.100123 -0.000000 0.264542 0.481696 -0.362726
7.830000 167.850797 212.565248 -0.000000 0.136414 0.144101 -0.118537 -83.116989 11.978647 -0.000000 0.271902 0.479147 -0.363402
7.835000 152.760991 166.729829 -0.000000 0.129261 0.147325 -0.118309 -80.236841 31.763896 -0.000000 0.278542 0.475716 -0.363817
7.840000 137.146087 124.253357 -0.000000 0.122546 0.151010 -0.118308 -80.058913 51.283828 -0.000000 0.284950 0.471981 -0.363877
7.845000 121.556641 86.118920 -0.000000 0.116323 0.155186 -0.118258 -82.588210 70.728401 -0.000000 0.291094 0.467815 -0.364474
7.850000 106.468253 53.039707 -0.000000 0.110346 0.159664 -0.118353 -87.914567 90.551859 -0.000000 0.296835 0.463261 -0.364963
7.855000 92.286233 25.358453 -0.000000 0.104765 0.164675 -0.118467 -96.176271 111.482925 -0.000000 0.302156 0.458136 -0.365306
7.860000 79.275552 3.078951 -0.000000 0.099553 0.170269 -0.118680 -107.482517 134.327566 -0.000000 0.306990 0.452285 -0.365786
7.865000 67.536400 -14.070736 -0.000000 0.094811 0.176406 -0.118669 -121.841392 159.696530 -0.000000 0.311604 0.445820 -0.366276
7.870000 57.018102 -26.561582 -0.000000 0.090182 0.182892 -0.118767 -138.988452 187.853261 -0.000000 0.315814 0.438473 -0.366837
7.875000 47.598156 -34.851864 -0.000000 0.085715 0.189748 -0.119032 -158.591184 218.438372 -0.000000 0.319601 0.430507 -0.367337
7.880000 39.109214 -39.452382 -0.000000 0.081684 0.197249 -0.119335 -179.950262 250.768140 -0.000000 0.322985 0.421891 -0.367748
7.885000 31.418020 -40.859627 -0.000000 0.078339 0.205162 -0.119336 -202.217555 283.854921 -0.000000 0.326046 0.412439 -0.368204
